<?xml version="1.0" encoding="UTF-8" standalone="no"?>
<!-- Created with Inkscape (http://www.inkscape.org/) -->

<svg
   width="64.679794mm"
   height="13.000003mm"
   viewBox="0 0 64.679794 13.000003"
   version="1.1"
   id="svg1"
   xml:space="preserve"
   inkscape:version="1.3.2 (091e20e, 2023-11-25, custom)"
   sodipodi:docname="logo__text.svg"
   inkscape:export-filename="logo__text.png"
   inkscape:export-xdpi="300"
   inkscape:export-ydpi="300"
   xmlns:inkscape="http://www.inkscape.org/namespaces/inkscape"
   xmlns:sodipodi="http://sodipodi.sourceforge.net/DTD/sodipodi-0.dtd"
   xmlns="http://www.w3.org/2000/svg"
   xmlns:svg="http://www.w3.org/2000/svg"><sodipodi:namedview
     id="namedview1"
     pagecolor="#ffffff"
     bordercolor="#000000"
     borderopacity="0.25"
     inkscape:showpageshadow="2"
     inkscape:pageopacity="0.0"
     inkscape:pagecheckerboard="0"
     inkscape:deskcolor="#d1d1d1"
     inkscape:document-units="mm"
     inkscape:zoom="4.5833574"
     inkscape:cx="-17.781725"
     inkscape:cy="65.563292"
     inkscape:window-width="3840"
     inkscape:window-height="2054"
     inkscape:window-x="-11"
     inkscape:window-y="-11"
     inkscape:window-maximized="1"
     inkscape:current-layer="layer1" /><defs
     id="defs1" /><g
     inkscape:label="Layer 1"
     inkscape:groupmode="layer"
     id="layer1"
     transform="translate(-29.834812,-53.175436)"><g
       id="g2"><text
         xml:space="preserve"
         style="font-size:5.29167px;font-family:Calibri;-inkscape-font-specification:Calibri;text-align:start;text-anchor:start;fill:#008080;stroke-width:0.264999"
         x="38.277691"
         y="57.971371"
         id="text1"><tspan
           sodipodi:role="line"
           id="tspan1"
           style="text-align:start;text-anchor:start;stroke-width:0.265"
           x="38.277691"
           y="57.971371">MSc in Electronics Science </tspan><tspan
           sodipodi:role="line"
           style="text-align:start;text-anchor:start;stroke-width:0.265"
           x="38.277691"
           y="64.58596"
           id="tspan2">and Technology</tspan></text><g
         fill="#00449e"
         id="g6"
         transform="matrix(0.01666667,0,0,0.01666667,23.592477,49.596269)"
         style="fill:#006666;fill-opacity:1;stroke-width:21.1666"><path
           d="m 818.54,658.75 v -444 h -444 v 444 h 91.152 v 120 h -36 v 216 h 24 v -192 h 36 v -144 h 96 v 120 h -36 v 96 h 36 v 120 h 24 v -120 h 36 v -96 h -36 v -120 h 96 v 144 h 36 v 192 h 24 v -216 h -36 v -120 z m -304.85,-24 h -72 v -72 h 72 z m 82.848,-156 c -49.703,0 -90,-40.297 -90,-90 0,-49.703 40.297,-90 90,-90 49.703,0 90,40.297 90,90 0,49.703 -40.297,90 -90,90 z m 85.152,156 v -72 h 72 v 72 z"
           id="path2"
           style="fill:#006666;fill-opacity:1;stroke-width:21.1666" /><path
           d="m 652.74,400.75 c -6.6367,0 -12,-5.375 -12,-12 0,-24.359 -19.824,-44.184 -44.195,-44.184 -6.625,0 -12,-5.375 -12,-12 0,-6.625 5.375,-12 12,-12 37.609,0 68.195,30.59 68.195,68.184 0,6.6211 -5.375,12 -12,12 z"
           id="path4"
           style="fill:#006666;fill-opacity:1;stroke-width:21.1666" /></g></g></g></svg>
